<svg xmlns="http://www.w3.org/2000/svg" viewBox="0 0 64 64">
  <defs>
    <linearGradient id="g" x1="0" y1="0" x2="1" y2="1">
      <stop offset="0%" stop-color="#145A41"/>
      <stop offset="100%" stop-color="#3cbc82"/>
    </linearGradient>
  </defs>
  <rect width="64" height="64" rx="18" fill="url(#g)"/>
  <path d="M32 15c-7 0-13 5.5-13 12.4 0 3.3 1.3 6.2 3.5 8.5L32 49l9.5-13.1c2.2-2.3 3.5-5.2 3.5-8.5C45 20.5 39 15 32 15zm0 17.8c-3 0-5.4-2.4-5.4-5.4S29 22 32 22s5.4 2.4 5.4 5.4-2.4 5.4-5.4 5.4z" fill="#fff"/>
  <circle cx="32" cy="27.4" r="2.3" fill="#145A41"/>
</svg>
